{
  "accessors": [
    {
      "bufferView": 3,
      "componentType": 5126,
      "count": 162,
      "max": [
        0.8946176767349243,
        0.7445313334465027,
        0.8889178037643433
      ],
      "min": [
        -0.8946176767349243,
        -1.863531231880188,
        -0.8889178037643433
      ],
      "type": "VEC3"
    },
    {
      "bufferView": 3,
      "byteOffset": 1944,
      "componentType": 5126,
      "count": 162,
      "max": [
        0.9999905824661255,
        1.0,
        0.9984579682350159
      ],
      "min": [
        -0.9999905824661255,
        -1.0,
        -0.9984579682350159
      ],
      "type": "VEC3"
    },
    {
      "bufferView": 2,
      "componentType": 5126,
      "count": 162,
      "max": [
        0.755208432674408,
        0.8802083730697632
      ],
      "min": [
        0.0,
        0.0
      ],
      "type": "VEC2"
    },
    {
      "bufferView": 1,
      "componentType": 5125,
      "count": 876,
      "type": "SCALAR"
    },
    {
      "bufferView": 3,
      "byteOffset": 3888,
      "componentType": 5126,
      "count": 159,
      "max": [
        1.0290799140930176,
        0.16018274426460266,
        -0.5677168369293213
      ],
      "min": [
        -1.0290799140930176,
        -1.3867497444152832,
        -1.5587399005889893
      ],
      "type": "VEC3"
    },
    {
      "bufferView": 3,
      "byteOffset": 5796,
      "componentType": 5126,
      "count": 159,
      "max": [
        0.9909456968307495,
        1.0,
        0.9999978542327881
      ],
      "min": [
        -0.9909456968307495,
        -1.0,
        -0.9935836791992188
      ],
      "type": "VEC3"
    },
    {
      "bufferView": 2,
      "byteOffset": 1296,
      "componentType": 5126,
      "count": 159,
      "max": [
        0.875,
        1.0
      ],
      "min": [
        0.125,
        0.0
      ],
      "type": "VEC2"
    },
    {
      "bufferView": 1,
      "byteOffset": 3504,
      "componentType": 5125,
      "count": 564,
      "type": "SCALAR"
    },
    {
      "bufferView": 3,
      "byteOffset": 7704,
      "componentType": 5126,
      "count": 99,
      "max": [
        0.6276342868804932,
        0.308375746011734,
        1.2222001552581787
      ],
      "min": [
        -0.6276341676712036,
        -0.427280992269516,
        0.5451266765594482
      ],
      "type": "VEC3"
    },
    {
      "bufferView": 3,
      "byteOffset": 8892,
      "componentType": 5126,
      "count": 99,
      "max": [
        0.9927090406417847,
        0.9964694380760193,
        0.9976375102996826
      ],
      "min": [
        -0.9927090406417847,
        -0.9999897480010986,
        -0.99998939037323
      ],
      "type": "VEC3"
    },
    {
      "bufferView": 2,
      "byteOffset": 2568,
      "componentType": 5126,
      "count": 99,
      "max": [
        0.8750001192092896,
        1.0000001192092896
      ],
      "min": [
        0.1250000149011612,
        0.0
      ],
      "type": "VEC2"
    },
    {
      "bufferView": 1,
      "byteOffset": 5760,
      "componentType": 5125,
      "count": 384,
      "type": "SCALAR"
    },
    {
      "bufferView": 5,
      "componentType": 5126,
      "count": 11,
      "max": [
        100.00001525878906,
        0.02992701716721058,
        0.0,
        0.0,
        4.718959871752304e-07,
        88.40404510498047,
        0.01880508102476597,
        0.0,
        2.6456260115992336e-07,
        0.023604314774274826,
        110.9655990600586,
        0.0,
        8.836740562401246e-06,
        1.4094089269638062,
        0.50001460313797,
        1.0
      ],
      "min": [
        -1.0000001192092896,
        -0.00016552141460124403,
        -1.0000001192092896,
        0.0,
        -2.839469326332278e-09,
        -0.8840404748916626,
        -0.026456691324710846,
        0.0,
        -1.1096874475479126,
        -2.708809745399776e-07,
        -1.1094049215316772,
        0.0,
        -6.112687060522148e-06,
        -1.7445487976074219,
        -0.5612986087799072,
        1.0
      ],
      "type": "MAT4"
    },
    {
      "bufferView": 0,
      "componentType": 5123,
      "count": 162,
      "type": "VEC4"
    },
    {
      "bufferView": 4,
      "componentType": 5126,
      "count": 162,
      "max": [
        1.0,
        0.5,
        0.0,
        0.0
      ],
      "min": [
        0.5,
        0.0,
        0.0,
        0.0
      ],
      "type": "VEC4"
    },
    {
      "bufferView": 0,
      "byteOffset": 1296,
      "componentType": 5123,
      "count": 159,
      "type": "VEC4"
    },
    {
      "bufferView": 4,
      "byteOffset": 2592,
      "componentType": 5126,
      "count": 159,
      "max": [
        1.0,
        0.5,
        0.0,
        0.0
      ],
      "min": [
        0.5,
        0.0,
        0.0,
        0.0
      ],
      "type": "VEC4"
    },
    {
      "bufferView": 0,
      "byteOffset": 2568,
      "componentType": 5123,
      "count": 99,
      "type": "VEC4"
    },
    {
      "bufferView": 4,
      "byteOffset": 5136,
      "componentType": 5126,
      "count": 99,
      "max": [
        1.0,
        0.0,
        0.0,
        0.0
      ],
      "min": [
        1.0,
        0.0,
        0.0,
        0.0
      ],
      "type": "VEC4"
    }
  ],
  "asset": {
    "extras": {
      "author": "fnaf fan (https://sketchfab.com/lysenkooleksandr69)",
      "license": "CC-BY-4.0 (http://creativecommons.org/licenses/by/4.0/)",
      "source": "https://sketchfab.com/3d-models/among-us-428bb9a3637e458c8336e4a7aefd4e3d",
      "title": "among us"
    },
    "generator": "Sketchfab-12.68.0",
    "version": "2.0"
  },
  "bufferViews": [
    {
      "buffer": 0,
      "byteLength": 3360,
      "byteStride": 8,
      "name": "shortBufferViews",
      "target": 34962
    },
    {
      "buffer": 0,
      "byteLength": 7296,
      "byteOffset": 3360,
      "name": "floatBufferViews",
      "target": 34963
    },
    {
      "buffer": 0,
      "byteLength": 3360,
      "byteOffset": 10656,
      "byteStride": 8,
      "name": "floatBufferViews",
      "target": 34962
    },
    {
      "buffer": 0,
      "byteLength": 10080,
      "byteOffset": 14016,
      "byteStride": 12,
      "name": "floatBufferViews",
      "target": 34962
    },
    {
      "buffer": 0,
      "byteLength": 6720,
      "byteOffset": 24096,
      "byteStride": 16,
      "name": "floatBufferViews",
      "target": 34962
    },
    {
      "buffer": 0,
      "byteLength": 704,
      "byteOffset": 30816,
      "name": "floatBufferViews"
    }
  ],
  "buffers": [
    {
      "byteLength": 31520,
      "uri": "scene.bin"
    }
  ],
  "extensionsRequired": [
    "KHR_materials_pbrSpecularGlossiness"
  ],
  "extensionsUsed": [
    "KHR_materials_pbrSpecularGlossiness"
  ],
  "materials": [
    {
      "doubleSided": true,
      "extensions": {
        "KHR_materials_pbrSpecularGlossiness": {
          "diffuseFactor": [
            1.0,
            0.0,
            0.0,
            1.0
          ],
          "glossinessFactor": 0.1959591794,
          "specularFactor": [
            0.0,
            0.0,
            0.0
          ]
        }
      },
      "name": "SUIT"
    },
    {
      "doubleSided": true,
      "extensions": {
        "KHR_materials_pbrSpecularGlossiness": {
          "diffuseFactor": [
            1.0,
            0.0,
            0.0,
            1.0
          ],
          "glossinessFactor": 0.1959591794,
          "specularFactor": [
            0.0,
            0.0,
            0.0
          ]
        }
      },
      "name": "material"
    },
    {
      "doubleSided": true,
      "extensions": {
        "KHR_materials_pbrSpecularGlossiness": {
          "diffuseFactor": [
            0.06116867716040303,
            1.0,
            0.9606197931857225,
            1.0
          ],
          "glossinessFactor": 0.1959591794,
          "specularFactor": [
            0.0,
            0.0,
            0.0
          ]
        }
      },
      "name": "GLASS"
    }
  ],
  "meshes": [
    {
      "name": "Cube_SUIT_0",
      "primitives": [
        {
          "attributes": {
            "JOINTS_0": 13,
            "NORMAL": 1,
            "POSITION": 0,
            "TEXCOORD_0": 2,
            "WEIGHTS_0": 14
          },
          "indices": 3,
          "material": 0,
          "mode": 4
        }
      ]
    },
    {
      "name": "Cube_JET_0",
      "primitives": [
        {
          "attributes": {
            "JOINTS_0": 15,
            "NORMAL": 5,
            "POSITION": 4,
            "TEXCOORD_0": 6,
            "WEIGHTS_0": 16
          },
          "indices": 7,
          "material": 1,
          "mode": 4
        }
      ]
    },
    {
      "name": "Cube_GLASS_0",
      "primitives": [
        {
          "attributes": {
            "JOINTS_0": 17,
            "NORMAL": 9,
            "POSITION": 8,
            "TEXCOORD_0": 10,
            "WEIGHTS_0": 18
          },
          "indices": 11,
          "material": 2,
          "mode": 4
        }
      ]
    }
  ],
  "nodes": [
    {
      "children": [
        1
      ],
      "matrix": [
        1.0,
        0.0,
        0.0,
        0.0,
        0.0,
        2.220446049250313e-16,
        -1.0,
        0.0,
        0.0,
        1.0,
        2.220446049250313e-16,
        0.0,
        0.0,
        0.0,
        0.0,
        1.0
      ],
      "name": "Sketchfab_model"
    },
    {
      "children": [
        2
      ],
      "matrix": [
        1.0,
        0.0,
        0.0,
        0.0,
        0.0,
        0.0,
        1.0,
        0.0,
        0.0,
        -1.0,
        0.0,
        0.0,
        0.0,
        0.0,
        0.0,
        1.0
      ],
      "name": "bcde257dbcbe44eba01144f06418256b.fbx"
    },
    {
      "children": [
        3,
        6,
        8
      ],
      "name": "RootNode"
    },
    {
      "children": [
        4
      ],
      "matrix": [
        -29.08647719990347,
        -5.518906457566863,
        -95.51711910171437,
        0.0,
        56.63930913109449,
        79.46723428563203,
        -21.83912397841966,
        0.0,
        77.11008775993375,
        -60.45246356562044,
        -19.98834696773717,
        0.0,
        -299.6937561035156,
        265.7340393066406,
        298.8484191894531,
        1.0
      ],
      "name": "Light"
    },
    {
      "children": [
        5
      ],
      "matrix": [
        1.0,
        0.0,
        0.0,
        0.0,
        0.0,
        2.220446049250313e-16,
        1.0,
        0.0,
        0.0,
        -1.0,
        2.220446049250313e-16,
        0.0,
        0.0,
        0.0,
        0.0,
        1.0
      ],
      "name": "Object_4"
    },
    {
      "name": "Object_5"
    },
    {
      "children": [
        7
      ],
      "matrix": [
        -40.87252782916375,
        4.37113930144064e-06,
        -91.26574641591561,
        0.0,
        1.7865961134286274e-06,
        99.9999999999999,
        3.98935246877007e-06,
        0.0,
        91.2657464159157,
        -1.0803568963531096e-12,
        -40.87252782916379,
        0.0,
        297.4956359863281,
        -65.56719207763672,
        698.5892944335938,
        1.0
      ],
      "name": "Camera"
    },
    {
      "name": "Object_7"
    },
    {
      "children": [
        9
      ],
      "matrix": [
        100.0,
        0.0,
        0.0,
        0.0,
        0.0,
        -1.629206793918314e-05,
        -99.99999999999868,
        0.0,
        0.0,
        99.99999999999868,
        -1.629206793918314e-05,
        0.0,
        0.0,
        -140.94088745117188,
        0.0,
        1.0
      ],
      "name": "Armature"
    },
    {
      "children": [
        10,
        12,
        13,
        14,
        11
      ],
      "name": "Object_9"
    },
    {
      "children": [
        15
      ],
      "name": "_rootJoint"
    },
    {
      "matrix": [
        100.00001192093464,
        -2.864560474937923e-16,
        -2.4175404516810217e-15,
        0.0,
        -2.1372032336956898e-15,
        -2.6680066309527453e-10,
        -88.40404250458083,
        0.0,
        3.1786763279016114e-16,
        110.96559959968674,
        -3.348907438528852e-10,
        0.0,
        -8.027399130819727e-14,
        -8.396175814402739,
        3.6309787709853936e-07,
        1.0
      ],
      "name": "Object_11"
    },
    {
      "mesh": 0,
      "name": "Object_12",
      "skin": 0
    },
    {
      "mesh": 1,
      "name": "Object_13",
      "skin": 0
    },
    {
      "mesh": 2,
      "name": "Object_14",
      "skin": 0
    },
    {
      "children": [
        16,
        19,
        22
      ],
      "name": "Bone.002_00",
      "rotation": [
        0.7064561247825623,
        -8.437119447535224e-08,
        -8.421612562869996e-08,
        0.7077568173408508
      ],
      "scale": [
        1.0,
        0.9999999403953552,
        0.9999999403953552
      ],
      "translation": [
        -1.8696582067545813e-16,
        -0.05752617120742798,
        -0.5652202367782593
      ]
    },
    {
      "children": [
        17
      ],
      "name": "Bone_01",
      "rotation": [
        0.000919763115234673,
        -3.5466643812494475e-15,
        -2.1928862892206524e-10,
        0.9999995827674866
      ],
      "translation": [
        -1.3467392534494138e-08,
        0.5653252005577087,
        -0.0564863421022892
      ]
    },
    {
      "children": [
        18
      ],
      "name": "Bone.001_02",
      "rotation": [
        4.65116695158585e-10,
        0.9999434351921082,
        0.010636473074555397,
        -1.947132517443606e-07
      ],
      "translation": [
        -2.01305320848865e-18,
        0.4952287971973419,
        -8.44346814687924e-12
      ]
    },
    {
      "name": "Bone.001_end_07",
      "rotation": [
        -1.734723475976807e-18,
        -2.6469779601696886e-23,
        6.203854594147708e-25,
        1.0
      ],
      "translation": [
        4.1359030627651384e-25,
        0.7048400640487671,
        0.0
      ]
    },
    {
      "children": [
        20
      ],
      "name": "Bone.004_03",
      "rotation": [
        -0.7070499658584595,
        0.007834142073988914,
        0.7070611715316772,
        0.009134883061051369
      ],
      "scale": [
        0.9999884963035583,
        1.0,
        0.9999999403953552
      ],
      "translation": [
        0.49977368116378784,
        0.5191326141357422,
        -0.05657150596380234
      ]
    },
    {
      "children": [
        21
      ],
      "name": "Bone.005_04",
      "rotation": [
        -0.005948532372713089,
        2.7697833502315916e-06,
        -4.2128370125738e-08,
        0.9999822974205017
      ],
      "scale": [
        1.0,
        0.9999998807907104,
        0.9999999403953552
      ],
      "translation": [
        -3.019806626980426e-13,
        0.28814756870269775,
        -6.239775274252679e-08
      ]
    },
    {
      "name": "Bone.005_end_08",
      "rotation": [
        -3.2288788415854297e-19,
        -2.136980158095346e-42,
        6.617444900424222e-24,
        1.0
      ],
      "translation": [
        0.0,
        0.2846144437789917,
        0.0
      ]
    },
    {
      "children": [
        23
      ],
      "name": "Bone.006_05",
      "rotation": [
        -0.7070499062538147,
        0.007865957915782928,
        0.7070604562759399,
        0.009166873060166836
      ],
      "scale": [
        0.9999716281890869,
        1.0,
        0.9999998211860657
      ],
      "translation": [
        -0.5164324641227722,
        0.544121265411377,
        -0.05652529373764992
      ]
    },
    {
      "children": [
        24
      ],
      "name": "Bone.007_06",
      "rotation": [
        -0.0059484802186489105,
        2.8455895062506897e-06,
        -4.873504266811324e-08,
        0.9999822974205017
      ],
      "scale": [
        1.0,
        0.9999998807907104,
        0.9999999403953552
      ],
      "translation": [
        9.43689570931383e-14,
        0.28814756870269775,
        7.17129182703502e-08
      ]
    },
    {
      "name": "Bone.007_end_09",
      "rotation": [
        -4.551518927566641e-19,
        -2.541098841762901e-21,
        2.6469779601696886e-23,
        1.0
      ],
      "translation": [
        8.470329472543003e-22,
        0.2846144735813141,
        0.0
      ]
    }
  ],
  "scene": 0,
  "scenes": [
    {
      "name": "Sketchfab_Scene",
      "nodes": [
        0
      ]
    }
  ],
  "skins": [
    {
      "inverseBindMatrices": 12,
      "joints": [
        10,
        15,
        16,
        17,
        18,
        19,
        20,
        21,
        22,
        23,
        24
      ],
      "skeleton": 10
    }
  ]
}
