{
  "accessors": [
    {
      "bufferView": 2,
      "componentType": 5126,
      "count": 10813,
      "max": [
        0.4984067380428314,
        0.49491143226623535,
        0.3472660481929779
      ],
      "min": [
        -0.4991985857486725,
        -0.49474820494651794,
        -0.3472660481929779
      ],
      "type": "VEC3"
    },
    {
      "bufferView": 2,
      "byteOffset": 129756,
      "componentType": 5126,
      "count": 10813,
      "max": [
        0.9999999403953552,
        1.0,
        1.0
      ],
      "min": [
        -1.0,
        -0.9998089671134949,
        -1.0
      ],
      "type": "VEC3"
    },
    {
      "bufferView": 1,
      "componentType": 5126,
      "count": 10813,
      "max": [
        0.9998199343681335,
        0.645791232585907
      ],
      "min": [
        0.00018949806690216064,
        0.00012862682342529297
      ],
      "type": "VEC2"
    },
    {
      "bufferView": 1,
      "byteOffset": 86504,
      "componentType": 5126,
      "count": 10813,
      "max": [
        0.9998199343681335,
        0.645791232585907
      ],
      "min": [
        0.00018949806690216064,
        0.00012862682342529297
      ],
      "type": "VEC2"
    },
    {
      "bufferView": 1,
      "byteOffset": 173008,
      "componentType": 5126,
      "count": 10813,
      "max": [
        0.9998199343681335,
        0.645791232585907
      ],
      "min": [
        0.00018949806690216064,
        0.00012862682342529297
      ],
      "type": "VEC2"
    },
    {
      "bufferView": 0,
      "componentType": 5125,
      "count": 63312,
      "type": "SCALAR"
    },
    {
      "bufferView": 2,
      "byteOffset": 259512,
      "componentType": 5126,
      "count": 4,
      "max": [
        0.5,
        0.5,
        0.0
      ],
      "min": [
        -0.5,
        -0.5,
        0.0
      ],
      "type": "VEC3"
    },
    {
      "bufferView": 2,
      "byteOffset": 259560,
      "componentType": 5126,
      "count": 4,
      "max": [
        0.0,
        0.0,
        1.0
      ],
      "min": [
        0.0,
        0.0,
        1.0
      ],
      "type": "VEC3"
    },
    {
      "bufferView": 1,
      "byteOffset": 259512,
      "componentType": 5126,
      "count": 4,
      "max": [
        1.0,
        1.0
      ],
      "min": [
        0.0,
        0.0
      ],
      "type": "VEC2"
    },
    {
      "bufferView": 0,
      "byteOffset": 253248,
      "componentType": 5125,
      "count": 6,
      "type": "SCALAR"
    }
  ],
  "asset": {
    "extras": {
      "author": "goootosleep (https://sketchfab.com/goootosleep)",
      "license": "CC-BY-4.0 (http://creativecommons.org/licenses/by/4.0/)",
      "source": "https://sketchfab.com/3d-models/troll-face-ce362deaf5e24a62b4b9c4955d278deb",
      "title": "Troll Face"
    },
    "generator": "Sketchfab-14.10.0",
    "version": "2.0"
  },
  "bufferViews": [
    {
      "buffer": 0,
      "byteLength": 253272,
      "name": "floatBufferViews",
      "target": 34963
    },
    {
      "buffer": 0,
      "byteLength": 259544,
      "byteOffset": 253272,
      "byteStride": 8,
      "name": "floatBufferViews",
      "target": 34962
    },
    {
      "buffer": 0,
      "byteLength": 259608,
      "byteOffset": 512816,
      "byteStride": 12,
      "name": "floatBufferViews",
      "target": 34962
    }
  ],
  "buffers": [
    {
      "byteLength": 772424,
      "uri": "scene.bin"
    }
  ],
  "extensionsRequired": [
    "KHR_materials_pbrSpecularGlossiness"
  ],
  "extensionsUsed": [
    "KHR_materials_pbrSpecularGlossiness"
  ],
  "images": [
    {
      "uri": "textures/material_diffuse.png"
    },
    {
      "uri": "textures/material_specularGlossiness.png"
    },
    {
      "uri": "textures/material_1_diffuse.png"
    }
  ],
  "materials": [
    {
      "doubleSided": true,
      "extensions": {
        "KHR_materials_pbrSpecularGlossiness": {
          "diffuseFactor": [
            1.0,
            1.0,
            1.0,
            1.0
          ],
          "diffuseTexture": {
            "index": 0
          },
          "glossinessFactor": 1.0,
          "specularFactor": [
            1.0,
            1.0,
            1.0
          ],
          "specularGlossinessTexture": {
            "index": 1
          }
        }
      },
      "name": "material"
    },
    {
      "alphaMode": "BLEND",
      "doubleSided": true,
      "extensions": {
        "KHR_materials_pbrSpecularGlossiness": {
          "diffuseFactor": [
            1.0,
            1.0,
            1.0,
            1.0
          ],
          "diffuseTexture": {
            "index": 2
          },
          "glossinessFactor": 0.0,
          "specularFactor": [
            0.0,
            0.0,
            0.0
          ]
        }
      },
      "name": "material_1"
    }
  ],
  "meshes": [
    {
      "name": "Object_0",
      "primitives": [
        {
          "attributes": {
            "NORMAL": 1,
            "POSITION": 0,
            "TEXCOORD_0": 2,
            "TEXCOORD_1": 3,
            "TEXCOORD_2": 4
          },
          "indices": 5,
          "material": 0,
          "mode": 4
        }
      ]
    },
    {
      "name": "Object_1",
      "primitives": [
        {
          "attributes": {
            "NORMAL": 7,
            "POSITION": 6,
            "TEXCOORD_0": 8
          },
          "indices": 9,
          "material": 1,
          "mode": 4
        }
      ]
    }
  ],
  "nodes": [
    {
      "children": [
        1
      ],
      "matrix": [
        1.0,
        0.0,
        0.0,
        0.0,
        0.0,
        2.220446049250313e-16,
        -1.0,
        0.0,
        0.0,
        1.0,
        2.220446049250313e-16,
        0.0,
        0.0,
        0.0,
        0.0,
        1.0
      ],
      "name": "Sketchfab_model"
    },
    {
      "children": [
        2
      ],
      "name": "root"
    },
    {
      "children": [
        3
      ],
      "matrix": [
        1.0,
        0.0,
        0.0,
        0.0,
        0.0,
        2.220446049250313e-16,
        1.0,
        0.0,
        0.0,
        -1.0,
        2.220446049250313e-16,
        0.0,
        0.0,
        0.0,
        0.0,
        1.0
      ],
      "name": "GLTF_SceneRootNode"
    },
    {
      "children": [
        4
      ],
      "name": "root_2"
    },
    {
      "children": [
        5,
        7
      ],
      "matrix": [
        0.0010000000474974513,
        0.0,
        0.0,
        0.0,
        0.0,
        0.0010000000474974513,
        0.0,
        0.0,
        0.0,
        0.0,
        0.0010000000474974513,
        0.0,
        0.0019282742869108915,
        -0.004799525719136,
        0.0,
        1.0
      ],
      "name": "node_id58_3"
    },
    {
      "children": [
        6
      ],
      "matrix": [
        400.1745300292969,
        0.0,
        0.0,
        0.0,
        0.0,
        315.118896484375,
        0.0,
        0.0,
        0.0,
        0.0,
        200.08726501464844,
        0.0,
        15.46392822265625,
        7.755730152130127,
        199.99093627929688,
        1.0
      ],
      "name": "_0"
    },
    {
      "mesh": 0,
      "name": "Object_6"
    },
    {
      "children": [
        8
      ],
      "matrix": [
        365.0619812011719,
        0.0,
        0.0,
        0.0,
        0.0,
        298.68701171875,
        0.0,
        0.0,
        0.0,
        0.0,
        1.0,
        0.0,
        15.987991333007813,
        3.3357417583465576,
        325.0002136230469,
        1.0
      ],
      "name": "_1"
    },
    {
      "mesh": 1,
      "name": "Object_8"
    }
  ],
  "samplers": [
    {
      "magFilter": 9729,
      "minFilter": 9987,
      "wrapS": 10497,
      "wrapT": 10497
    }
  ],
  "scene": 0,
  "scenes": [
    {
      "name": "Sketchfab_Scene",
      "nodes": [
        0
      ]
    }
  ],
  "textures": [
    {
      "sampler": 0,
      "source": 0
    },
    {
      "sampler": 0,
      "source": 1
    },
    {
      "sampler": 0,
      "source": 2
    }
  ]
}
